<svg width="104" height="30" viewBox="0 0 104 30" fill="none" xmlns="http://www.w3.org/2000/svg">
<path fill-rule="evenodd" clip-rule="evenodd" d="M44.3333 0H0V30H44.3333L56 15L44.3333 0ZM21.233 13.0427L21.2329 13.0426L21.2328 13.0426C21.0574 12.9144 20.8846 12.7882 20.7069 12.6671C20.2222 12.3336 19.6956 12.068 19.0917 11.9496C18.425 11.8182 17.7518 11.7705 17.0867 11.9524C16.1382 12.2109 15.478 12.774 15.0415 13.5579C14.6792 14.2105 14.5826 14.9021 14.6776 15.6211C14.7533 16.1842 14.9546 16.7068 15.3234 17.1703C15.8902 17.8821 16.6632 18.2936 17.6295 18.4019C18.4991 18.5 19.3413 18.4019 20.1385 18.0582C20.4106 17.9405 20.4106 17.9384 20.4106 17.6674V17.6626C20.4106 17.5966 20.4108 17.5308 20.411 17.465V17.4644V17.4642V17.464C20.4113 17.333 20.4117 17.2022 20.4106 17.0707C20.4104 17.0442 20.4108 17.0217 20.4112 17.0024C20.4121 16.9476 20.4126 16.9194 20.3972 16.9052C20.3809 16.8901 20.3468 16.8905 20.2769 16.8913L20.2531 16.8915L20.2174 16.8917H17.689C17.6665 16.8917 17.6464 16.8919 17.6287 16.8921C17.5578 16.8928 17.5233 16.8932 17.5068 16.8779C17.4912 16.8635 17.4919 16.8349 17.4932 16.7793C17.4937 16.7607 17.4942 16.7392 17.4942 16.7141C17.4931 16.1077 17.4935 15.5013 17.4938 14.8949L17.4938 14.8853C17.494 14.5853 17.4942 14.2853 17.4942 13.9853C17.4942 13.9774 17.4944 13.9694 17.4946 13.9614L17.4949 13.9519V13.9519V13.9518C17.4956 13.9292 17.4963 13.9064 17.4942 13.8842C17.4893 13.8308 17.5103 13.8019 17.5747 13.8077C17.5994 13.8096 17.6249 13.809 17.6502 13.8084C17.6627 13.808 17.6751 13.8077 17.6874 13.8077H24.0791C24.121 13.8077 24.1564 13.8149 24.15 13.8626C24.1471 13.8913 24.1672 13.9105 24.1877 13.9302C24.2126 13.9541 24.2382 13.9787 24.2241 14.0214C24.2119 14.0582 24.2149 14.0985 24.218 14.1388C24.2194 14.157 24.2208 14.1753 24.2208 14.1932L24.2207 15.2296V15.2314C24.2205 16.6125 24.2202 17.9942 24.2241 19.375C24.2241 19.4876 24.1854 19.5583 24.0904 19.6291C22.9003 20.517 21.5621 21.1378 20.0483 21.4454C19.1529 21.6273 18.2462 21.6778 17.3299 21.6114C16.2477 21.5334 15.2187 21.2837 14.2685 20.8101C12.5245 19.9409 11.4262 18.6213 10.9205 16.8989C10.6983 16.138 10.6306 15.3627 10.7015 14.5801C10.9672 11.6781 13.2314 9.41427 16.2654 8.78478C17.1318 8.6043 18.0063 8.57831 18.8888 8.63173C19.5652 8.6736 20.2303 8.76889 20.8809 8.94215C21.8552 9.20347 22.7151 9.65394 23.4978 10.2315C23.5896 10.2993 23.6797 10.3672 23.7683 10.4365C23.881 10.5231 23.8843 10.5722 23.786 10.679C23.2932 11.2132 22.8005 11.746 22.3061 12.2787C22.0597 12.5458 21.8133 12.8129 21.5653 13.0786C21.5589 13.086 21.5526 13.0936 21.5462 13.1014C21.5189 13.1346 21.4899 13.1698 21.4429 13.1956C21.3722 13.1444 21.3023 13.0934 21.233 13.0427ZM34.0215 8.60713C35.8558 8.62012 37.6304 9.20197 39.1201 10.4234C40.2763 11.3734 40.9849 12.5573 41.2683 13.939C41.584 15.4767 41.3569 16.9493 40.5098 18.3224C39.5049 19.951 37.9718 20.9948 35.9717 21.4669C34.2502 21.8741 32.5432 21.7918 30.8957 21.1753C28.7507 20.3711 27.3641 18.9273 26.7135 16.9436C26.1322 15.1691 26.3431 13.4438 27.3834 11.8354C28.3964 10.2675 29.9214 9.28571 31.87 8.82803C32.5416 8.67065 33.1744 8.60857 34.0215 8.60713ZM33.5867 11.9091C32.5802 11.9293 31.5431 12.4462 30.8941 13.5247C30.4529 14.2567 30.3498 15.0464 30.5173 15.8622C30.6493 16.5061 30.9601 17.0764 31.4755 17.5442C32.2791 18.2747 33.263 18.562 34.3903 18.4451C35.5562 18.3253 36.4226 17.7882 36.9782 16.8656C37.4501 16.0802 37.5483 15.2399 37.3277 14.3751C36.9637 12.9399 35.6287 11.9047 33.5867 11.9091Z" fill="#FF6B0A"/>
<path fill-rule="evenodd" clip-rule="evenodd" d="M104 0H60V30H104V0ZM72.6687 8.77871V14.9134V21.0191C72.6687 21.0322 72.669 21.0452 72.6694 21.0582C72.6701 21.0841 72.6708 21.1097 72.6687 21.1347C72.6622 21.2054 72.6832 21.2473 72.7734 21.2357C72.7948 21.2338 72.8163 21.2344 72.8378 21.2351C72.8485 21.2354 72.8592 21.2357 72.87 21.2357C73.2505 21.2357 73.6311 21.2359 74.0119 21.236H74.0149C74.7758 21.2364 75.5372 21.2367 76.2985 21.2357C76.3225 21.2357 76.3436 21.236 76.3623 21.2362H76.3626C76.4383 21.237 76.4739 21.2374 76.4901 21.2199C76.5045 21.2044 76.5038 21.1749 76.5025 21.1194C76.502 21.0999 76.5014 21.0773 76.5014 21.0509V8.79604C76.5014 8.78641 76.5011 8.77679 76.5007 8.76716C76.5 8.74791 76.4993 8.72866 76.5014 8.70941C76.5095 8.63722 76.4821 8.59968 76.3952 8.60835C76.378 8.61026 76.3602 8.60963 76.3421 8.60899C76.3362 8.60878 76.3303 8.60857 76.3244 8.60845C76.3211 8.60839 76.3179 8.60835 76.3146 8.60835C75.9304 8.60835 75.546 8.60818 75.1615 8.60802H75.1613C74.3921 8.6077 73.6226 8.60738 72.8539 8.60835C72.8311 8.60835 72.811 8.60808 72.7934 8.60784C72.7279 8.60695 72.6961 8.60653 72.6809 8.62219C72.6667 8.63694 72.6671 8.66595 72.6681 8.72228V8.72232C72.6684 8.7387 72.6687 8.75739 72.6687 8.77871ZM91.7585 8.60877H86.0415H86.0377C84.1339 8.60877 82.23 8.60877 80.3278 8.60732C80.3133 8.60732 80.299 8.60749 80.2847 8.60765H80.2846H80.2845H80.2845C80.2561 8.60797 80.2279 8.60828 80.199 8.60732C80.1345 8.60444 80.112 8.63187 80.1168 8.68529C80.1179 8.70158 80.1175 8.71723 80.1172 8.73309V8.73312V8.73315V8.73324C80.117 8.74123 80.1168 8.74927 80.1168 8.75748V11.6884L80.1167 11.7188C80.1164 11.7795 80.1162 11.8104 80.1316 11.8261C80.1477 11.8424 80.1806 11.8422 80.2479 11.8416L80.2924 11.8414H83.8836C84.0048 11.8414 84.0627 11.8414 84.0903 11.8703C84.1155 11.8967 84.1155 11.9471 84.1155 12.0435V21.0802C84.1155 21.0976 84.1152 21.113 84.115 21.1266C84.1142 21.1766 84.1138 21.2036 84.127 21.2182C84.1426 21.2353 84.1771 21.2351 84.2522 21.2348L84.2878 21.2347H84.3361H87.7341C87.8459 21.2347 87.8993 21.2347 87.9248 21.208C87.9482 21.1836 87.9482 21.1367 87.9482 21.047V12.0103C87.9482 11.9998 87.9482 11.9899 87.948 11.9807C87.9479 11.9727 87.9478 11.9652 87.9477 11.9581C87.9468 11.9043 87.9463 11.8754 87.9605 11.8599C87.977 11.8419 88.0133 11.8421 88.092 11.8427L88.1399 11.8429H91.7955C91.9533 11.8429 91.9533 11.8429 91.9549 11.7028V11.6595V8.78635C91.9549 8.76632 91.9552 8.74852 91.9554 8.7327C91.9562 8.67141 91.9567 8.63991 91.9411 8.62391C91.9247 8.607 91.8904 8.60742 91.8199 8.60829H91.8198C91.8018 8.60851 91.7815 8.60877 91.7585 8.60877Z" fill="#010101"/>
</svg>
